<svg width="192.998871" height="102.925751" viewBox="0 0 192.999 102.926" fill="none" xmlns="http://www.w3.org/2000/svg" xmlns:xlink="http://www.w3.org/1999/xlink">
	<desc>
			Created with Pixso.
	</desc>
	<defs>
		<clipPath id="clip1_9">
			<rect id="Frame" rx="0.000000" width="75.000000" height="45.000000" transform="translate(117.498871 28.998840)" fill="white" fill-opacity="0"/>
		</clipPath>
		<linearGradient x1="50.995453" y1="0.000000" x2="50.995453" y2="102.925743" id="paint_linear_1_6_0" gradientUnits="userSpaceOnUse">
			<stop stop-color="#C0B7E8"/>
			<stop offset="1.000000" stop-color="#8176AF"/>
		</linearGradient>
		<linearGradient x1="122.784668" y1="28.498840" x2="122.784668" y2="74.498840" id="paint_linear_1_11_0" gradientUnits="userSpaceOnUse">
			<stop stop-color="#C0B7E8"/>
			<stop offset="1.000000" stop-color="#8176AF"/>
		</linearGradient>
		<linearGradient x1="138.801865" y1="28.498840" x2="138.801865" y2="74.498840" id="paint_linear_1_12_0" gradientUnits="userSpaceOnUse">
			<stop stop-color="#C0B7E8"/>
			<stop offset="1.000000" stop-color="#8176AF"/>
		</linearGradient>
		<linearGradient x1="154.802948" y1="28.498840" x2="154.802948" y2="74.498840" id="paint_linear_1_13_0" gradientUnits="userSpaceOnUse">
			<stop stop-color="#C0B7E8"/>
			<stop offset="1.000000" stop-color="#8176AF"/>
		</linearGradient>
		<linearGradient x1="170.019073" y1="28.498840" x2="170.019073" y2="74.498840" id="paint_linear_1_14_0" gradientUnits="userSpaceOnUse">
			<stop stop-color="#C0B7E8"/>
			<stop offset="1.000000" stop-color="#8176AF"/>
		</linearGradient>
		<linearGradient x1="186.036285" y1="28.498840" x2="186.036285" y2="74.498840" id="paint_linear_1_15_0" gradientUnits="userSpaceOnUse">
			<stop stop-color="#C0B7E8"/>
			<stop offset="1.000000" stop-color="#8176AF"/>
		</linearGradient>
	</defs>
	<rect id="фрейм 1" width="192.998840" height="102.925751" transform="translate(0.000031 0.000000)" fill="#FFFFFF" fill-opacity="0"/>
	<path id="Vector" d="M100.77 41.25C102.1 48.97 93.91 46.91 93.91 46.91C90.48 37.25 84.99 38.15 84.99 38.15C89.28 41.29 89.61 43.96 89.61 43.96C78.16 35.84 62.6 42.37 56.68 45.44C53.36 40.75 46.64 30.25 49.03 25.49C52.17 19.25 58.56 22.82 58.56 22.82C71.48 22.61 70.76 17.99 70.76 17.99C67.33 20.66 57.22 17.99 57.22 17.99C66 17.99 69.72 14.42 69.72 14.42C63.18 16.04 55.89 9.08 55.89 9.08C53.21 -4.59 40.87 1.22 40.87 1.22C48.59 -0.11 46.53 8.07 46.53 8.07C36.86 11.5 37.76 16.98 37.76 16.98C40.9 12.69 43.57 12.36 43.57 12.36C34.73 24.81 43.25 42.12 45.78 46.63C41.16 49.84 30.32 56.9 25.45 54.45C19.2 51.31 22.78 44.93 22.78 44.93C22.63 32.02 18.01 32.74 18.01 32.74C20.68 36.17 18.01 46.26 18.01 46.26C18.01 37.5 14.44 33.79 14.44 33.79C16.06 40.31 9.09 47.6 9.09 47.6C-4.59 50.27 1.22 62.6 1.22 62.6C-0.11 54.88 8.08 56.94 8.08 56.94C11.51 66.6 17 65.7 17 65.7C12.7 62.57 12.38 59.9 12.38 59.9C24.47 68.48 41.19 60.69 46.25 57.95C49.64 62.82 55.96 72.84 53.61 77.5C50.47 83.74 44.08 80.17 44.08 80.17C31.15 80.31 31.88 84.93 31.88 84.93C35.31 82.26 45.42 84.93 45.42 84.93C36.64 84.93 32.92 88.5 32.92 88.5C39.46 86.87 46.75 93.83 46.75 93.83C49.42 107.5 61.77 101.7 61.77 101.7C54.04 103.03 56.1 94.84 56.1 94.84C65.78 91.42 64.88 85.94 64.88 85.94C61.74 90.23 59.06 90.55 59.06 90.55C67.73 78.4 59.75 61.56 57.04 56.62C61.95 53.19 71.88 47.06 76.47 49.37C82.71 52.5 79.14 58.89 79.14 58.89C79.28 71.8 83.9 71.08 83.9 71.08C81.23 67.65 83.9 57.55 83.9 57.55C83.9 66.32 87.48 70.03 87.48 70.03C85.85 63.5 92.82 56.22 92.82 56.22C106.58 53.59 100.77 41.25 100.77 41.25Z" fill="url(#paint_linear_1_6_0)" fill-opacity="1.000000" fill-rule="nonzero"/>
	<path id="Vector" d="" fill="#000000" fill-opacity="0" fill-rule="evenodd"/>
	<rect id="Frame" rx="0.000000" width="75.000000" height="45.000000" transform="translate(117.498871 28.998840)" fill="#FFFFFF" fill-opacity="0"/>
	<g clip-path="url(#clip1_9)">
		<path id="Vector" d="M116.99 28.49L119.32 28.49L119.32 55.9L126.25 55.9L126.25 28.49L128.57 28.49L128.57 74.49L126.25 74.49L126.25 58.21L119.32 58.21L119.32 74.49L116.99 74.49L116.99 28.49Z" fill="url(#paint_linear_1_11_0)" fill-opacity="1.000000" fill-rule="nonzero"/>
		<path id="Vector" d="M145.73 28.49L139.97 58.21L139.97 74.49L137.65 74.49L137.65 58.21L131.87 28.49L133.99 28.49L138.83 53.27L143.64 28.49L145.73 28.49Z" fill="url(#paint_linear_1_12_0)" fill-opacity="1.000000" fill-rule="nonzero"/>
		<path id="Vector" d="M155.99 74.49L149.03 74.49L149.03 28.49L155.96 28.49C158.54 28.49 160.57 30.54 160.57 33.08L160.57 69.88C160.6 72.38 158.54 74.49 155.99 74.49ZM151.35 30.8L151.35 72.19L155.96 72.19C157.2 72.19 158.28 71.15 158.28 69.88L158.28 33.08C158.28 31.84 157.23 30.77 155.96 30.77L151.35 30.77L151.35 30.8Z" fill="url(#paint_linear_1_13_0)" fill-opacity="1.000000" fill-rule="nonzero"/>
		<path id="Vector" d="M175.8 74.49L173.41 74.49L169.33 58.21L166.55 58.21L166.55 74.49L164.23 74.49L164.23 28.49L171.16 28.49C173.74 28.49 175.77 30.54 175.77 33.08L175.77 53.59C175.77 55.9 173.97 57.85 171.68 58.11L175.8 74.49ZM166.55 55.9L171.16 55.9C172.4 55.9 173.48 54.86 173.48 53.59L173.48 33.08C173.48 31.84 172.43 30.77 171.16 30.77L166.55 30.77L166.55 55.9Z" fill="url(#paint_linear_1_14_0)" fill-opacity="1.000000" fill-rule="nonzero"/>
		<path id="Vector" d="M182.8 58.21L181.19 74.49L179.1 74.49L183.74 28.49L188.35 28.49L192.96 74.49L190.87 74.49L189.27 58.21L182.8 58.21ZM186.49 30.8L185.57 30.8L183.06 55.9L189.01 55.9L186.49 30.8Z" fill="url(#paint_linear_1_15_0)" fill-opacity="1.000000" fill-rule="nonzero"/>
	</g>
</svg>
