<svg width="126.000000" height="59.884460" viewBox="0 0 126 59.8845" fill="none" xmlns="http://www.w3.org/2000/svg" xmlns:xlink="http://www.w3.org/1999/xlink">
	<desc>
			Created with Pixso.
	</desc>
	<defs>
		<clipPath id="clip13_84">
			<rect id="Frame" rx="0.000000" width="45.000000" height="27.000000" transform="translate(80.500000 26.835236)" fill="white" fill-opacity="0"/>
		</clipPath>
		<linearGradient x1="34.500000" y1="0.000000" x2="34.500000" y2="59.884460" id="paint_linear_13_79_0" gradientUnits="userSpaceOnUse">
			<stop stop-color="#C0B7E8"/>
			<stop offset="1.000000" stop-color="#8176AF"/>
		</linearGradient>
		<linearGradient x1="83.501938" y1="26.335236" x2="83.501938" y2="54.335236" id="paint_linear_13_86_0" gradientUnits="userSpaceOnUse">
			<stop stop-color="#C0B7E8"/>
			<stop offset="1.000000" stop-color="#8176AF"/>
		</linearGradient>
		<linearGradient x1="93.196609" y1="26.335236" x2="93.196609" y2="54.335236" id="paint_linear_13_87_0" gradientUnits="userSpaceOnUse">
			<stop stop-color="#C0B7E8"/>
			<stop offset="1.000000" stop-color="#8176AF"/>
		</linearGradient>
		<linearGradient x1="102.881439" y1="26.335236" x2="102.881439" y2="54.335236" id="paint_linear_13_88_0" gradientUnits="userSpaceOnUse">
			<stop stop-color="#C0B7E8"/>
			<stop offset="1.000000" stop-color="#8176AF"/>
		</linearGradient>
		<linearGradient x1="112.091164" y1="26.335236" x2="112.091164" y2="54.335236" id="paint_linear_13_89_0" gradientUnits="userSpaceOnUse">
			<stop stop-color="#C0B7E8"/>
			<stop offset="1.000000" stop-color="#8176AF"/>
		</linearGradient>
		<linearGradient x1="121.785843" y1="26.335236" x2="121.785843" y2="54.335236" id="paint_linear_13_90_0" gradientUnits="userSpaceOnUse">
			<stop stop-color="#C0B7E8"/>
			<stop offset="1.000000" stop-color="#8176AF"/>
		</linearGradient>
	</defs>
	<rect id="фрейм 1" width="126.000000" height="59.884457" fill="#FFFFFF" fill-opacity="0"/>
	<path id="Vector" d="M68.17 24C69.07 28.49 63.53 27.29 63.53 27.29C61.21 21.67 57.5 22.19 57.5 22.19C60.4 24.02 60.62 25.57 60.62 25.57C52.88 20.85 42.35 24.65 38.34 26.43C36.1 23.71 31.55 17.6 33.17 14.83C35.29 11.2 39.61 13.28 39.61 13.28C48.36 13.15 47.87 10.46 47.87 10.46C45.55 12.02 38.71 10.46 38.71 10.46C44.65 10.46 47.16 8.39 47.16 8.39C42.74 9.33 37.81 5.28 37.81 5.28C36 -2.67 27.65 0.71 27.65 0.71C32.87 -0.07 31.48 4.69 31.48 4.69C24.93 6.69 25.54 9.88 25.54 9.88C27.67 7.38 29.48 7.19 29.48 7.19C23.49 14.43 29.26 24.5 30.97 27.13C27.84 28.99 20.51 33.11 17.22 31.68C12.99 29.85 15.41 26.14 15.41 26.14C15.31 18.63 12.18 19.05 12.18 19.05C13.99 21.04 12.18 26.92 12.18 26.92C12.18 21.82 9.77 19.66 9.77 19.66C10.86 23.45 6.15 27.69 6.15 27.69C-3.11 29.24 0.82 36.42 0.82 36.42C-0.08 31.93 5.47 33.13 5.47 33.13C7.79 38.75 11.5 38.23 11.5 38.23C8.59 36.4 8.37 34.85 8.37 34.85C16.56 39.84 27.87 35.31 31.29 33.71C33.58 36.55 37.86 42.38 36.27 45.09C34.14 48.72 29.82 46.64 29.82 46.64C21.07 46.72 21.56 49.41 21.56 49.41C23.88 47.86 30.72 49.41 30.72 49.41C24.79 49.41 22.27 51.49 22.27 51.49C26.69 50.54 31.63 54.59 31.63 54.59C33.43 62.54 41.79 59.17 41.79 59.17C36.56 59.94 37.95 55.18 37.95 55.18C44.5 53.19 43.89 50 43.89 50C41.76 52.49 39.96 52.68 39.96 52.68C45.82 45.61 40.42 35.81 38.59 32.94C41.91 30.94 48.63 27.38 51.73 28.72C55.96 30.55 53.54 34.26 53.54 34.26C53.64 41.77 56.76 41.35 56.76 41.35C54.96 39.36 56.76 33.48 56.76 33.48C56.76 38.58 59.18 40.74 59.18 40.74C58.08 36.95 62.8 32.71 62.8 32.71C72.1 31.18 68.17 24 68.17 24Z" fill="url(#paint_linear_13_79_0)" fill-opacity="1.000000" fill-rule="nonzero"/>
	<rect id="Frame" rx="0.000000" width="45.000000" height="27.000000" transform="translate(80.500000 26.835236)" fill="#FFFFFF" fill-opacity="0"/>
	<g clip-path="url(#clip13_84)">
		<path id="Vector" d="M80 26.33L81.4 26.33L81.4 43.01L85.59 43.01L85.59 26.33L87 26.33L87 54.33L85.59 54.33L85.59 44.42L81.4 44.42L81.4 54.33L80 54.33L80 26.33Z" fill="url(#paint_linear_13_86_0)" fill-opacity="1.000000" fill-rule="nonzero"/>
		<path id="Vector" d="M97.39 26.33L93.9 44.42L93.9 54.33L92.5 54.33L92.5 44.42L89 26.33L90.28 26.33L93.21 41.41L96.12 26.33L97.39 26.33Z" fill="url(#paint_linear_13_87_0)" fill-opacity="1.000000" fill-rule="nonzero"/>
		<path id="Vector" d="M103.6 54.33L99.38 54.33L99.38 26.33L103.58 26.33C105.14 26.33 106.37 27.58 106.37 29.12L106.37 51.52C106.39 53.04 105.14 54.33 103.6 54.33ZM100.79 27.74L100.79 52.93L103.58 52.93C104.33 52.93 104.98 52.29 104.98 51.52L104.98 29.12C104.98 28.37 104.35 27.72 103.58 27.72L100.79 27.72L100.79 27.74Z" fill="url(#paint_linear_13_88_0)" fill-opacity="1.000000" fill-rule="nonzero"/>
		<path id="Vector" d="M115.59 54.33L114.14 54.33L111.67 44.42L109.99 44.42L109.99 54.33L108.58 54.33L108.58 26.33L112.78 26.33C114.34 26.33 115.57 27.58 115.57 29.12L115.57 41.61C115.57 43.01 114.48 44.2 113.1 44.36L115.59 54.33ZM109.99 43.01L112.78 43.01C113.53 43.01 114.18 42.38 114.18 41.61L114.18 29.12C114.18 28.37 113.55 27.72 112.78 27.72L109.99 27.72L109.99 43.01Z" fill="url(#paint_linear_13_89_0)" fill-opacity="1.000000" fill-rule="nonzero"/>
		<path id="Vector" d="M119.82 44.42L118.85 54.33L117.59 54.33L120.4 26.33L123.19 26.33L125.98 54.33L124.71 54.33L123.74 44.42L119.82 44.42ZM122.06 27.74L121.5 27.74L119.98 43.01L123.58 43.01L122.06 27.74Z" fill="url(#paint_linear_13_90_0)" fill-opacity="1.000000" fill-rule="nonzero"/>
	</g>
</svg>
